<svg xmlns="http://www.w3.org/2000/svg" xmlns:xlink="http://www.w3.org/1999/xlink" preserveAspectRatio="xMidYMid meet" version="1.0" viewBox="1.0 38.5 510.0 439.1" zoomAndPan="magnify" style="fill: rgb(0, 0, 0);" original_string_length="1897" width="36.41141405565291px" height="31.313816087861504px"><g><g><g id="__id3_saa4yy1y0e"><path d="M496,121.497v194c0,37.56-30.44,68-68,68H263.5l-112.5,75v-75H84c-37.56,0-68-30.44-68-68v-194 c0-37.56,30.44-68,68-68h344C465.56,53.497,496,83.937,496,121.497z" style="fill: rgb(126, 121, 117);"/></g><g id="__id4_saa4yy1y0e"><circle cx="376" cy="218.497" r="30" style="fill: rgb(126, 121, 117);"/></g><g id="__id5_saa4yy1y0e"><circle cx="256" cy="218.497" r="30" style="fill: rgb(126, 121, 117);"/></g><g id="__id6_saa4yy1y0e"><circle cx="136" cy="218.497" r="30" style="fill: rgb(126, 121, 117);"/></g><g id="__id7_saa4yy1y0e" style="fill: rgb(69, 40, 41);"><path d="M256,173.497c-24.813,0-45,20.187-45,45s20.187,45,45,45s45-20.187,45-45 S280.813,173.497,256,173.497z M256,233.497c-8.271,0-15-6.729-15-15s6.729-15,15-15s15,6.729,15,15S264.271,233.497,256,233.497 z" style="fill: inherit;"/><path d="M376,173.497c-24.813,0-45,20.187-45,45s20.187,45,45,45s45-20.187,45-45 S400.813,173.497,376,173.497z M376,233.497c-8.271,0-15-6.729-15-15s6.729-15,15-15s15,6.729,15,15S384.271,233.497,376,233.497 z" style="fill: inherit;"/><path d="M136,173.497c-24.813,0-45,20.187-45,45s20.187,45,45,45s45-20.187,45-45 S160.813,173.497,136,173.497z M136,233.497c-8.271,0-15-6.729-15-15s6.729-15,15-15s15,6.729,15,15S144.271,233.497,136,233.497 z" style="fill: inherit;"/><path d="M428,38.497H84c-45.767,0-83,37.233-83,83v194c0,45.767,37.233,83,83,83h52v60 c0,12.038,13.456,19.059,23.32,12.48l108.722-72.48H428c45.767,0,83-37.233,83-83v-194C511,75.731,473.767,38.497,428,38.497z M481,315.497c0,29.225-23.775,53-53,53H263.5c-2.961,0-5.856,0.877-8.32,2.52L166,430.47v-46.973c0-8.284-6.716-15-15-15H84 c-29.225,0-53-23.775-53-53v-194c0-29.225,23.775-53,53-53h344c29.225,0,53,23.775,53,53V315.497z" style="fill: inherit;"/></g></g></g></svg>